<svg xmlns="http://www.w3.org/2000/svg" xmlns:xlink="http://www.w3.org/1999/xlink" version="1.1" id="Layer_1" x="0px"
     y="0px" viewBox="0 0 217.31 84.8" style="enable-background:new 0 0 217.31 84.8;" xml:space="preserve">
<style type="text/css">
	.st0{fill:none;}
	.st1{fill-rule:evenodd;clip-rule:evenodd;fill:#fff;}
</style>
    <g>
	<rect x="1.31" y="0" class="st0" width="214.68" height="84.8"/>
        <g>
		<rect x="21.55" y="40.59" class="st1" width="9.2" height="3.68"/>
            <polygon class="st1" points="38.11,44.27 47.31,44.27 47.31,40.59 34.43,40.59 34.43,57.15 38.11,57.15   "/>
            <path class="st1"
                  d="M30.75,18.93v-3.75c-9.42,1.73-16.56,9.98-16.56,19.9v9.2h3.68v-9.2C17.87,27.19,23.38,20.6,30.75,18.93"/>
            <path class="st1"
                  d="M50.99,40.59v11.04c0,9.14-7.41,16.56-16.56,16.56v3.68c11.18,0,20.24-9.06,20.24-20.24V40.59H50.99z"/>
            <polygon class="st1"
                     points="69.5,42.3 69.5,52.27 67.55,52.27 67.55,42.3 63.71,42.3 63.71,40.59 73.34,40.59 73.34,42.3   "/>
            <path class="st1"
                  d="M77.33,48.32L77.33,48.32c-0.56,0.03-1.36,0.12-1.92,0.21c-1.2,0.2-1.64,0.56-1.64,1.31    c0,0.74,0.53,1.23,1.48,1.23c0.57,0,1.13-0.18,1.51-0.56c0.44-0.46,0.57-0.9,0.57-1.79V48.32z M79.14,46.96v3.12    c0,0.98,0.08,1.67,0.21,2.2h-1.69c-0.08-0.36-0.11-0.77-0.11-1.16h-0.03c-0.61,0.89-1.54,1.35-2.81,1.35    c-1.74,0-2.82-1.05-2.82-2.48c0-1.36,0.8-2.25,3.2-2.63c0.67-0.12,1.66-0.21,2.25-0.25v-0.33c0-1.23-0.67-1.72-1.62-1.72    c-1.03,0-1.59,0.58-1.64,1.46h-1.84c0.08-1.58,1.23-2.82,3.48-2.82C77.91,43.69,79.14,44.78,79.14,46.96z"/>
            <path class="st1"
                  d="M92.8,47.14v5.14h-1.87v-4.96c0-1.48-0.57-2.07-1.51-2.07c-1.1,0-1.76,0.94-1.76,2.53v4.5h-1.87v-5.15    c0-1.18-0.53-1.87-1.49-1.87c-1.12,0-1.76,0.95-1.76,2.56v4.46h-1.87v-8.34h1.79v1h0.03c0.59-0.8,1.33-1.2,2.31-1.2    c1.15,0,2.03,0.53,2.46,1.51c0.61-0.95,1.41-1.51,2.67-1.51C91.71,43.74,92.8,44.89,92.8,47.14"/>
            <path class="st1"
                  d="M96.12,48.11L96.12,48.11c0,1.8,0.8,2.92,2.02,2.92c1.26,0,2.07-1.15,2.07-2.92c0-1.77-0.8-2.92-2.07-2.92    C96.93,45.19,96.12,46.29,96.12,48.11 M102.16,48.11c0,2.66-1.35,4.36-3.46,4.36c-1.03,0-1.97-0.48-2.45-1.28h-0.03v4.12h-1.87    V43.94h1.82v1.15h0.03c0.49-0.85,1.43-1.36,2.48-1.36C100.8,43.72,102.16,45.45,102.16,48.11z"/>
            <path class="st1"
                  d="M104.72,47.25L104.72,47.25h4.22c-0.13-1.46-0.98-2.18-2.1-2.18C105.71,45.07,104.88,45.81,104.72,47.25     M108.79,49.76h1.92c-0.31,1.49-1.66,2.76-3.84,2.76c-2.54,0-4.04-1.82-4.04-4.51c0-2.46,1.48-4.32,4-4.32    c1.9,0,3.28,1.1,3.74,2.84c0.17,0.52,0.23,1.15,0.23,1.95h-6.12c0.07,1.89,1.02,2.66,2.18,2.66    C107.94,51.14,108.63,50.57,108.79,49.76z"/>
            <path class="st1"
                  d="M116.75,43.91v1.66c-0.23-0.05-0.44-0.07-0.66-0.07c-1.49,0-2.31,0.95-2.31,2.69v4.09h-1.87v-8.34h1.74v1.23    h0.03c0.56-0.9,1.35-1.35,2.38-1.35C116.27,43.82,116.53,43.86,116.75,43.91"/>
            <path class="st1"
                  d="M118.77,47.25L118.77,47.25h4.22c-0.13-1.46-0.98-2.18-2.1-2.18C119.76,45.07,118.94,45.81,118.77,47.25     M122.84,49.76h1.92c-0.31,1.49-1.66,2.76-3.84,2.76c-2.54,0-4.04-1.82-4.04-4.51c0-2.46,1.48-4.32,4-4.32    c1.9,0,3.28,1.1,3.74,2.84c0.16,0.52,0.23,1.15,0.23,1.95h-6.12c0.07,1.89,1.02,2.66,2.18,2.66    C121.99,51.14,122.68,50.57,122.84,49.76z"/>
            <path class="st1"
                  d="M127.38,47.25L127.38,47.25h4.22c-0.13-1.46-0.98-2.18-2.1-2.18C128.37,45.07,127.54,45.81,127.38,47.25     M131.45,49.76h1.92c-0.31,1.49-1.66,2.76-3.84,2.76c-2.54,0-4.04-1.82-4.04-4.51c0-2.46,1.48-4.32,4-4.32    c1.9,0,3.28,1.1,3.74,2.84c0.16,0.52,0.23,1.15,0.23,1.95h-6.12c0.07,1.89,1.02,2.66,2.18,2.66    C130.6,51.14,131.29,50.57,131.45,49.76z"/>
            <path class="st1"
                  d="M141.9,47.17v5.1h-1.87v-4.94c0-1.49-0.64-2.08-1.69-2.08c-1.07,0-1.9,0.8-1.9,2.4v4.63h-1.87v-8.34h1.77    v1.08h0.03c0.53-0.75,1.39-1.28,2.49-1.28C140.75,43.74,141.9,44.89,141.9,47.17"/>
            <path class="st1"
                  d="M151.03,52.63c-0.79,2.12-1.71,2.76-3.64,2.76c-0.36,0-0.69-0.05-0.94-0.11v-1.53    c0.21,0.07,0.49,0.12,0.79,0.12c1.02,0,1.46-0.38,1.85-1.53l-3.05-8.4h2l2.08,6.2h0.03l2.15-6.2h1.94L151.03,52.63z"/>
            <rect x="154.81" y="40.59" class="st1" width="1.87" height="11.68"/>
            <path class="st1"
                  d="M158.24,52.27L158.24,52.27v-8.34h1.87v8.34H158.24z M158.24,42.38v-1.79h1.87v1.79H158.24z"/>
            <path class="st1"
                  d="M163.21,48.11L163.21,48.11c0,1.8,0.82,2.94,2.15,2.94c1.33,0,2.15-1.13,2.15-2.94    c0-1.81-0.82-2.94-2.15-2.94C164.03,45.17,163.21,46.3,163.21,48.11 M169.46,48.11c0,2.71-1.58,4.41-4.1,4.41    c-2.53,0-4.12-1.71-4.12-4.41s1.59-4.41,4.12-4.41C167.88,43.69,169.46,45.4,169.46,48.11z"/>
            <path class="st1"
                  d="M172.36,48.11L172.36,48.11c0,1.8,0.8,2.92,2.02,2.92c1.26,0,2.07-1.15,2.07-2.92c0-1.77-0.8-2.92-2.07-2.92    C173.16,45.19,172.36,46.29,172.36,48.11 M178.4,48.11c0,2.66-1.35,4.36-3.46,4.36c-1.04,0-1.97-0.48-2.45-1.28h-0.03v4.12h-1.87    V43.94h1.82v1.15h0.03c0.49-0.85,1.43-1.36,2.48-1.36C177.03,43.72,178.4,45.45,178.4,48.11z"/>
            <path class="st1"
                  d="M179.56,52.27L179.56,52.27v-8.34h1.87v8.34H179.56z M179.56,42.38v-1.79h1.87v1.79H179.56z"/>
            <path class="st1"
                  d="M189.37,46.53h-1.8c0-1-0.59-1.48-1.59-1.48c-0.87,0-1.38,0.38-1.38,0.99c0,0.72,0.57,0.87,1.88,1.2    c1.53,0.39,3.15,0.75,3.15,2.74c0,1.51-1.35,2.54-3.5,2.54c-2.23,0-3.59-1-3.61-2.99h1.9c0,1.02,0.63,1.59,1.74,1.59    c0.95,0,1.51-0.41,1.51-1.03c0-0.85-0.66-1.02-2.1-1.38c-1.4-0.34-2.86-0.66-2.86-2.53c0-1.48,1.31-2.49,3.26-2.49    C188.1,43.69,189.35,44.68,189.37,46.53"/>
            <path class="st1"
                  d="M194.81,50.76v1.46c-0.28,0.08-0.71,0.15-1.05,0.15c-1.76,0-2.53-0.74-2.53-2.56v-4.45h-1.39v-1.43h1.39    v-2.08h1.87v2.08h1.63v1.43h-1.63v4.17c0,0.93,0.31,1.31,1.13,1.31C194.45,50.85,194.68,50.81,194.81,50.76"/>
            <path class="st1"
                  d="M197.03,48.11L197.03,48.11c0,1.8,0.82,2.94,2.15,2.94c1.33,0,2.15-1.13,2.15-2.94    c0-1.81-0.82-2.94-2.15-2.94C197.86,45.17,197.03,46.3,197.03,48.11 M203.29,48.11c0,2.71-1.57,4.41-4.1,4.41    c-2.53,0-4.12-1.71-4.12-4.41s1.59-4.41,4.12-4.41C201.71,43.69,203.29,45.4,203.29,48.11z"/>
            <polygon class="st1"
                     points="69.5,58.85 69.5,68.83 67.55,68.83 67.55,58.85 63.71,58.85 63.71,57.15 73.34,57.15 73.34,58.85       "/>
            <path class="st1"
                  d="M77.33,64.88L77.33,64.88c-0.56,0.03-1.36,0.11-1.92,0.21c-1.2,0.2-1.64,0.56-1.64,1.31    c0,0.74,0.53,1.23,1.48,1.23c0.57,0,1.13-0.18,1.51-0.56c0.44-0.46,0.57-0.9,0.57-1.79V64.88z M79.14,63.51v3.12    c0,0.99,0.08,1.67,0.21,2.2h-1.69c-0.08-0.36-0.11-0.77-0.11-1.17h-0.03c-0.61,0.89-1.54,1.35-2.81,1.35    c-1.74,0-2.82-1.05-2.82-2.48c0-1.36,0.8-2.25,3.2-2.63c0.67-0.11,1.66-0.21,2.25-0.25v-0.33c0-1.23-0.67-1.72-1.62-1.72    c-1.03,0-1.59,0.57-1.64,1.46h-1.84c0.08-1.58,1.23-2.82,3.48-2.82C77.91,60.25,79.14,61.33,79.14,63.51z"/>
            <path class="st1"
                  d="M92.8,63.69v5.14h-1.87v-4.96c0-1.48-0.57-2.07-1.51-2.07c-1.1,0-1.76,0.94-1.76,2.53v4.5h-1.87v-5.15    c0-1.18-0.53-1.87-1.49-1.87c-1.12,0-1.76,0.95-1.76,2.56v4.46h-1.87v-8.34h1.79v1h0.03c0.59-0.8,1.33-1.2,2.31-1.2    c1.15,0,2.03,0.52,2.46,1.51c0.61-0.95,1.41-1.51,2.67-1.51C91.71,60.3,92.8,61.45,92.8,63.69"/>
            <path class="st1"
                  d="M96.12,64.66L96.12,64.66c0,1.81,0.8,2.92,2.02,2.92c1.26,0,2.07-1.15,2.07-2.92c0-1.77-0.8-2.92-2.07-2.92    C96.93,61.74,96.12,62.84,96.12,64.66 M102.16,64.66c0,2.66-1.35,4.37-3.46,4.37c-1.03,0-1.97-0.48-2.45-1.28h-0.03v4.12h-1.87    V60.49h1.82v1.15h0.03c0.49-0.85,1.43-1.36,2.48-1.36C100.8,60.28,102.16,62,102.16,64.66z"/>
            <path class="st1"
                  d="M104.72,63.81L104.72,63.81h4.22c-0.13-1.46-0.98-2.18-2.1-2.18C105.71,61.63,104.88,62.37,104.72,63.81     M108.79,66.32h1.92c-0.31,1.49-1.66,2.76-3.84,2.76c-2.54,0-4.04-1.82-4.04-4.51c0-2.46,1.48-4.32,4-4.32    c1.9,0,3.28,1.1,3.74,2.84c0.17,0.53,0.23,1.15,0.23,1.95h-6.12c0.07,1.89,1.02,2.66,2.18,2.66    C107.94,67.7,108.63,67.12,108.79,66.32z"/>
            <path class="st1"
                  d="M116.75,60.46v1.66c-0.23-0.05-0.44-0.07-0.66-0.07c-1.49,0-2.31,0.95-2.31,2.69v4.09h-1.87v-8.34h1.74v1.23    h0.03c0.56-0.9,1.35-1.34,2.38-1.34C116.27,60.38,116.53,60.41,116.75,60.46"/>
            <path class="st1"
                  d="M118.77,63.81L118.77,63.81h4.22c-0.13-1.46-0.98-2.18-2.1-2.18C119.76,61.63,118.94,62.37,118.77,63.81     M122.84,66.32h1.92c-0.31,1.49-1.66,2.76-3.84,2.76c-2.54,0-4.04-1.82-4.04-4.51c0-2.46,1.48-4.32,4-4.32    c1.9,0,3.28,1.1,3.74,2.84c0.16,0.53,0.23,1.15,0.23,1.95h-6.12c0.07,1.89,1.02,2.66,2.18,2.66    C121.99,67.7,122.68,67.12,122.84,66.32z"/>
            <path class="st1"
                  d="M138.92,64.42c0,3.04-1.59,4.66-4.48,4.66c-2.89,0-4.49-1.62-4.49-4.66v-7.27h1.97v7.2    c0,1.97,0.92,2.97,2.53,2.97c1.61,0,2.53-1,2.53-2.97v-7.2h1.95V64.42z"/>
            <path class="st1"
                  d="M147.95,63.73v5.1h-1.87v-4.94c0-1.49-0.64-2.08-1.69-2.08c-1.07,0-1.9,0.8-1.9,2.4v4.63h-1.87v-8.34h1.77    v1.08h0.03c0.52-0.75,1.39-1.28,2.49-1.28C146.8,60.3,147.95,61.45,147.95,63.73"/>
            <path class="st1"
                  d="M149.48,68.83L149.48,68.83v-8.34h1.87v8.34H149.48z M149.48,58.94v-1.79h1.87v1.79H149.48z"/>
            <path class="st1"
                  d="M154.82,68.83l-2.9-8.34h1.95l1.08,3.4c0.39,1.21,0.74,2.41,1.07,3.64h0.03c0.33-1.23,0.67-2.43,1.07-3.64    l1.08-3.4h1.95l-2.9,8.34H154.82z"/>
            <path class="st1"
                  d="M161.81,63.81L161.81,63.81h4.22c-0.13-1.46-0.99-2.18-2.1-2.18C162.8,61.63,161.98,62.37,161.81,63.81     M165.88,66.32h1.92c-0.31,1.49-1.66,2.76-3.84,2.76c-2.54,0-4.04-1.82-4.04-4.51c0-2.46,1.47-4.32,4-4.32    c1.9,0,3.28,1.1,3.74,2.84c0.16,0.53,0.23,1.15,0.23,1.95h-6.12c0.07,1.89,1.02,2.66,2.18,2.66    C165.03,67.7,165.72,67.12,165.88,66.32z"/>
            <path class="st1"
                  d="M173.84,60.46v1.66c-0.23-0.05-0.44-0.07-0.66-0.07c-1.49,0-2.31,0.95-2.31,2.69v4.09H169v-8.34h1.74v1.23    h0.03c0.56-0.9,1.35-1.34,2.38-1.34C173.36,60.38,173.63,60.41,173.84,60.46"/>
            <path class="st1"
                  d="M180.96,63.09h-1.8c0-1-0.59-1.48-1.59-1.48c-0.87,0-1.38,0.38-1.38,0.98c0,0.72,0.57,0.87,1.89,1.2    c1.53,0.39,3.15,0.75,3.15,2.74c0,1.51-1.35,2.54-3.49,2.54c-2.23,0-3.59-1-3.61-2.99h1.9c0,1.02,0.63,1.59,1.74,1.59    c0.95,0,1.51-0.41,1.51-1.03c0-0.85-0.66-1.02-2.1-1.38c-1.4-0.34-2.86-0.66-2.86-2.53c0-1.48,1.31-2.49,3.27-2.49    C179.7,60.25,180.94,61.23,180.96,63.09"/>
            <path class="st1"
                  d="M182.34,68.83L182.34,68.83v-8.34h1.87v8.34H182.34z M182.34,58.94v-1.79h1.87v1.79H182.34z"/>
            <path class="st1"
                  d="M189.85,67.32v1.46c-0.28,0.08-0.71,0.15-1.05,0.15c-1.76,0-2.53-0.74-2.53-2.56v-4.45h-1.39v-1.43h1.39    v-2.08h1.87v2.08h1.62v1.43h-1.62v4.17c0,0.94,0.31,1.31,1.13,1.31C189.49,67.4,189.72,67.37,189.85,67.32"/>
            <path class="st1"
                  d="M195.02,69.19c-0.79,2.12-1.71,2.76-3.64,2.76c-0.36,0-0.69-0.05-0.93-0.12v-1.53    c0.21,0.07,0.49,0.12,0.79,0.12c1.02,0,1.46-0.38,1.85-1.53l-3.05-8.4h2l2.08,6.2h0.03l2.15-6.2h1.94L195.02,69.19z"/>
	</g>
</g>
</svg>
